<svg version="1.1" xmlns="http://www.w3.org/2000/svg" width="82px" height="82px" viewBox="0 0 82 82"  preserveAspectRatio="xMinYMin meet"><rect width="100%" height="100%" fill="white" cx="0" cy="0"/><path d="M8,8l2,0 0,2 -2,0 0,-2z M10,8l2,0 0,2 -2,0 0,-2z M12,8l2,0 0,2 -2,0 0,-2z M14,8l2,0 0,2 -2,0 0,-2z M16,8l2,0 0,2 -2,0 0,-2z M18,8l2,0 0,2 -2,0 0,-2z M20,8l2,0 0,2 -2,0 0,-2z M24,8l2,0 0,2 -2,0 0,-2z M34,8l2,0 0,2 -2,0 0,-2z M36,8l2,0 0,2 -2,0 0,-2z M40,8l2,0 0,2 -2,0 0,-2z M44,8l2,0 0,2 -2,0 0,-2z M46,8l2,0 0,2 -2,0 0,-2z M60,8l2,0 0,2 -2,0 0,-2z M62,8l2,0 0,2 -2,0 0,-2z M64,8l2,0 0,2 -2,0 0,-2z M66,8l2,0 0,2 -2,0 0,-2z M68,8l2,0 0,2 -2,0 0,-2z M70,8l2,0 0,2 -2,0 0,-2z M72,8l2,0 0,2 -2,0 0,-2z M8,10l2,0 0,2 -2,0 0,-2z M20,10l2,0 0,2 -2,0 0,-2z M24,10l2,0 0,2 -2,0 0,-2z M30,10l2,0 0,2 -2,0 0,-2z M32,10l2,0 0,2 -2,0 0,-2z M34,10l2,0 0,2 -2,0 0,-2z M36,10l2,0 0,2 -2,0 0,-2z M38,10l2,0 0,2 -2,0 0,-2z M44,10l2,0 0,2 -2,0 0,-2z M48,10l2,0 0,2 -2,0 0,-2z M54,10l2,0 0,2 -2,0 0,-2z M56,10l2,0 0,2 -2,0 0,-2z M60,10l2,0 0,2 -2,0 0,-2z M72,10l2,0 0,2 -2,0 0,-2z M8,12l2,0 0,2 -2,0 0,-2z M12,12l2,0 0,2 -2,0 0,-2z M14,12l2,0 0,2 -2,0 0,-2z M16,12l2,0 0,2 -2,0 0,-2z M20,12l2,0 0,2 -2,0 0,-2z M24,12l2,0 0,2 -2,0 0,-2z M26,12l2,0 0,2 -2,0 0,-2z M32,12l2,0 0,2 -2,0 0,-2z M36,12l2,0 0,2 -2,0 0,-2z M42,12l2,0 0,2 -2,0 0,-2z M44,12l2,0 0,2 -2,0 0,-2z M46,12l2,0 0,2 -2,0 0,-2z M48,12l2,0 0,2 -2,0 0,-2z M50,12l2,0 0,2 -2,0 0,-2z M56,12l2,0 0,2 -2,0 0,-2z M60,12l2,0 0,2 -2,0 0,-2z M64,12l2,0 0,2 -2,0 0,-2z M66,12l2,0 0,2 -2,0 0,-2z M68,12l2,0 0,2 -2,0 0,-2z M72,12l2,0 0,2 -2,0 0,-2z M8,14l2,0 0,2 -2,0 0,-2z M12,14l2,0 0,2 -2,0 0,-2z M14,14l2,0 0,2 -2,0 0,-2z M16,14l2,0 0,2 -2,0 0,-2z M20,14l2,0 0,2 -2,0 0,-2z M24,14l2,0 0,2 -2,0 0,-2z M26,14l2,0 0,2 -2,0 0,-2z M28,14l2,0 0,2 -2,0 0,-2z M32,14l2,0 0,2 -2,0 0,-2z M42,14l2,0 0,2 -2,0 0,-2z M46,14l2,0 0,2 -2,0 0,-2z M48,14l2,0 0,2 -2,0 0,-2z M50,14l2,0 0,2 -2,0 0,-2z M52,14l2,0 0,2 -2,0 0,-2z M56,14l2,0 0,2 -2,0 0,-2z M60,14l2,0 0,2 -2,0 0,-2z M64,14l2,0 0,2 -2,0 0,-2z M66,14l2,0 0,2 -2,0 0,-2z M68,14l2,0 0,2 -2,0 0,-2z M72,14l2,0 0,2 -2,0 0,-2z M8,16l2,0 0,2 -2,0 0,-2z M12,16l2,0 0,2 -2,0 0,-2z M14,16l2,0 0,2 -2,0 0,-2z M16,16l2,0 0,2 -2,0 0,-2z M20,16l2,0 0,2 -2,0 0,-2z M26,16l2,0 0,2 -2,0 0,-2z M28,16l2,0 0,2 -2,0 0,-2z M32,16l2,0 0,2 -2,0 0,-2z M42,16l2,0 0,2 -2,0 0,-2z M46,16l2,0 0,2 -2,0 0,-2z M48,16l2,0 0,2 -2,0 0,-2z M50,16l2,0 0,2 -2,0 0,-2z M52,16l2,0 0,2 -2,0 0,-2z M56,16l2,0 0,2 -2,0 0,-2z M60,16l2,0 0,2 -2,0 0,-2z M64,16l2,0 0,2 -2,0 0,-2z M66,16l2,0 0,2 -2,0 0,-2z M68,16l2,0 0,2 -2,0 0,-2z M72,16l2,0 0,2 -2,0 0,-2z M8,18l2,0 0,2 -2,0 0,-2z M20,18l2,0 0,2 -2,0 0,-2z M24,18l2,0 0,2 -2,0 0,-2z M26,18l2,0 0,2 -2,0 0,-2z M28,18l2,0 0,2 -2,0 0,-2z M40,18l2,0 0,2 -2,0 0,-2z M42,18l2,0 0,2 -2,0 0,-2z M46,18l2,0 0,2 -2,0 0,-2z M50,18l2,0 0,2 -2,0 0,-2z M52,18l2,0 0,2 -2,0 0,-2z M60,18l2,0 0,2 -2,0 0,-2z M72,18l2,0 0,2 -2,0 0,-2z M8,20l2,0 0,2 -2,0 0,-2z M10,20l2,0 0,2 -2,0 0,-2z M12,20l2,0 0,2 -2,0 0,-2z M14,20l2,0 0,2 -2,0 0,-2z M16,20l2,0 0,2 -2,0 0,-2z M18,20l2,0 0,2 -2,0 0,-2z M20,20l2,0 0,2 -2,0 0,-2z M24,20l2,0 0,2 -2,0 0,-2z M28,20l2,0 0,2 -2,0 0,-2z M32,20l2,0 0,2 -2,0 0,-2z M36,20l2,0 0,2 -2,0 0,-2z M40,20l2,0 0,2 -2,0 0,-2z M44,20l2,0 0,2 -2,0 0,-2z M48,20l2,0 0,2 -2,0 0,-2z M52,20l2,0 0,2 -2,0 0,-2z M56,20l2,0 0,2 -2,0 0,-2z M60,20l2,0 0,2 -2,0 0,-2z M62,20l2,0 0,2 -2,0 0,-2z M64,20l2,0 0,2 -2,0 0,-2z M66,20l2,0 0,2 -2,0 0,-2z M68,20l2,0 0,2 -2,0 0,-2z M70,20l2,0 0,2 -2,0 0,-2z M72,20l2,0 0,2 -2,0 0,-2z M28,22l2,0 0,2 -2,0 0,-2z M30,22l2,0 0,2 -2,0 0,-2z M34,22l2,0 0,2 -2,0 0,-2z M38,22l2,0 0,2 -2,0 0,-2z M40,22l2,0 0,2 -2,0 0,-2z M52,22l2,0 0,2 -2,0 0,-2z M54,22l2,0 0,2 -2,0 0,-2z M8,24l2,0 0,2 -2,0 0,-2z M10,24l2,0 0,2 -2,0 0,-2z M16,24l2,0 0,2 -2,0 0,-2z M18,24l2,0 0,2 -2,0 0,-2z M20,24l2,0 0,2 -2,0 0,-2z M28,24l2,0 0,2 -2,0 0,-2z M32,24l2,0 0,2 -2,0 0,-2z M34,24l2,0 0,2 -2,0 0,-2z M46,24l2,0 0,2 -2,0 0,-2z M48,24l2,0 0,2 -2,0 0,-2z M52,24l2,0 0,2 -2,0 0,-2z M56,24l2,0 0,2 -2,0 0,-2z M62,24l2,0 0,2 -2,0 0,-2z M66,24l2,0 0,2 -2,0 0,-2z M68,24l2,0 0,2 -2,0 0,-2z M70,24l2,0 0,2 -2,0 0,-2z M72,24l2,0 0,2 -2,0 0,-2z M8,26l2,0 0,2 -2,0 0,-2z M10,26l2,0 0,2 -2,0 0,-2z M14,26l2,0 0,2 -2,0 0,-2z M18,26l2,0 0,2 -2,0 0,-2z M24,26l2,0 0,2 -2,0 0,-2z M34,26l2,0 0,2 -2,0 0,-2z M36,26l2,0 0,2 -2,0 0,-2z M40,26l2,0 0,2 -2,0 0,-2z M44,26l2,0 0,2 -2,0 0,-2z M46,26l2,0 0,2 -2,0 0,-2z M58,26l2,0 0,2 -2,0 0,-2z M60,26l2,0 0,2 -2,0 0,-2z M62,26l2,0 0,2 -2,0 0,-2z M64,26l2,0 0,2 -2,0 0,-2z M66,26l2,0 0,2 -2,0 0,-2z M72,26l2,0 0,2 -2,0 0,-2z M8,28l2,0 0,2 -2,0 0,-2z M12,28l2,0 0,2 -2,0 0,-2z M14,28l2,0 0,2 -2,0 0,-2z M20,28l2,0 0,2 -2,0 0,-2z M24,28l2,0 0,2 -2,0 0,-2z M26,28l2,0 0,2 -2,0 0,-2z M28,28l2,0 0,2 -2,0 0,-2z M40,28l2,0 0,2 -2,0 0,-2z M42,28l2,0 0,2 -2,0 0,-2z M46,28l2,0 0,2 -2,0 0,-2z M50,28l2,0 0,2 -2,0 0,-2z M52,28l2,0 0,2 -2,0 0,-2z M62,28l2,0 0,2 -2,0 0,-2z M66,28l2,0 0,2 -2,0 0,-2z M68,28l2,0 0,2 -2,0 0,-2z M8,30l2,0 0,2 -2,0 0,-2z M10,30l2,0 0,2 -2,0 0,-2z M18,30l2,0 0,2 -2,0 0,-2z M22,30l2,0 0,2 -2,0 0,-2z M24,30l2,0 0,2 -2,0 0,-2z M26,30l2,0 0,2 -2,0 0,-2z M32,30l2,0 0,2 -2,0 0,-2z M36,30l2,0 0,2 -2,0 0,-2z M42,30l2,0 0,2 -2,0 0,-2z M44,30l2,0 0,2 -2,0 0,-2z M46,30l2,0 0,2 -2,0 0,-2z M48,30l2,0 0,2 -2,0 0,-2z M50,30l2,0 0,2 -2,0 0,-2z M56,30l2,0 0,2 -2,0 0,-2z M58,30l2,0 0,2 -2,0 0,-2z M68,30l2,0 0,2 -2,0 0,-2z M70,30l2,0 0,2 -2,0 0,-2z M18,32l2,0 0,2 -2,0 0,-2z M20,32l2,0 0,2 -2,0 0,-2z M22,32l2,0 0,2 -2,0 0,-2z M24,32l2,0 0,2 -2,0 0,-2z M30,32l2,0 0,2 -2,0 0,-2z M34,32l2,0 0,2 -2,0 0,-2z M36,32l2,0 0,2 -2,0 0,-2z M38,32l2,0 0,2 -2,0 0,-2z M40,32l2,0 0,2 -2,0 0,-2z M44,32l2,0 0,2 -2,0 0,-2z M54,32l2,0 0,2 -2,0 0,-2z M58,32l2,0 0,2 -2,0 0,-2z M60,32l2,0 0,2 -2,0 0,-2z M62,32l2,0 0,2 -2,0 0,-2z M68,32l2,0 0,2 -2,0 0,-2z M70,32l2,0 0,2 -2,0 0,-2z M72,32l2,0 0,2 -2,0 0,-2z M8,34l2,0 0,2 -2,0 0,-2z M14,34l2,0 0,2 -2,0 0,-2z M16,34l2,0 0,2 -2,0 0,-2z M22,34l2,0 0,2 -2,0 0,-2z M24,34l2,0 0,2 -2,0 0,-2z M26,34l2,0 0,2 -2,0 0,-2z M28,34l2,0 0,2 -2,0 0,-2z M32,34l2,0 0,2 -2,0 0,-2z M42,34l2,0 0,2 -2,0 0,-2z M46,34l2,0 0,2 -2,0 0,-2z M48,34l2,0 0,2 -2,0 0,-2z M50,34l2,0 0,2 -2,0 0,-2z M52,34l2,0 0,2 -2,0 0,-2z M56,34l2,0 0,2 -2,0 0,-2z M60,34l2,0 0,2 -2,0 0,-2z M68,34l2,0 0,2 -2,0 0,-2z M70,34l2,0 0,2 -2,0 0,-2z M72,34l2,0 0,2 -2,0 0,-2z M10,36l2,0 0,2 -2,0 0,-2z M14,36l2,0 0,2 -2,0 0,-2z M16,36l2,0 0,2 -2,0 0,-2z M18,36l2,0 0,2 -2,0 0,-2z M20,36l2,0 0,2 -2,0 0,-2z M22,36l2,0 0,2 -2,0 0,-2z M26,36l2,0 0,2 -2,0 0,-2z M30,36l2,0 0,2 -2,0 0,-2z M32,36l2,0 0,2 -2,0 0,-2z M34,36l2,0 0,2 -2,0 0,-2z M36,36l2,0 0,2 -2,0 0,-2z M38,36l2,0 0,2 -2,0 0,-2z M44,36l2,0 0,2 -2,0 0,-2z M48,36l2,0 0,2 -2,0 0,-2z M54,36l2,0 0,2 -2,0 0,-2z M56,36l2,0 0,2 -2,0 0,-2z M58,36l2,0 0,2 -2,0 0,-2z M60,36l2,0 0,2 -2,0 0,-2z M64,36l2,0 0,2 -2,0 0,-2z M70,36l2,0 0,2 -2,0 0,-2z M72,36l2,0 0,2 -2,0 0,-2z M8,38l2,0 0,2 -2,0 0,-2z M16,38l2,0 0,2 -2,0 0,-2z M18,38l2,0 0,2 -2,0 0,-2z M24,38l2,0 0,2 -2,0 0,-2z M26,38l2,0 0,2 -2,0 0,-2z M28,38l2,0 0,2 -2,0 0,-2z M30,38l2,0 0,2 -2,0 0,-2z M34,38l2,0 0,2 -2,0 0,-2z M38,38l2,0 0,2 -2,0 0,-2z M40,38l2,0 0,2 -2,0 0,-2z M52,38l2,0 0,2 -2,0 0,-2z M54,38l2,0 0,2 -2,0 0,-2z M60,38l2,0 0,2 -2,0 0,-2z M62,38l2,0 0,2 -2,0 0,-2z M64,38l2,0 0,2 -2,0 0,-2z M66,38l2,0 0,2 -2,0 0,-2z M72,38l2,0 0,2 -2,0 0,-2z M14,40l2,0 0,2 -2,0 0,-2z M16,40l2,0 0,2 -2,0 0,-2z M18,40l2,0 0,2 -2,0 0,-2z M20,40l2,0 0,2 -2,0 0,-2z M22,40l2,0 0,2 -2,0 0,-2z M24,40l2,0 0,2 -2,0 0,-2z M28,40l2,0 0,2 -2,0 0,-2z M32,40l2,0 0,2 -2,0 0,-2z M34,40l2,0 0,2 -2,0 0,-2z M46,40l2,0 0,2 -2,0 0,-2z M48,40l2,0 0,2 -2,0 0,-2z M52,40l2,0 0,2 -2,0 0,-2z M56,40l2,0 0,2 -2,0 0,-2z M66,40l2,0 0,2 -2,0 0,-2z M68,40l2,0 0,2 -2,0 0,-2z M10,42l2,0 0,2 -2,0 0,-2z M14,42l2,0 0,2 -2,0 0,-2z M16,42l2,0 0,2 -2,0 0,-2z M28,42l2,0 0,2 -2,0 0,-2z M34,42l2,0 0,2 -2,0 0,-2z M36,42l2,0 0,2 -2,0 0,-2z M40,42l2,0 0,2 -2,0 0,-2z M44,42l2,0 0,2 -2,0 0,-2z M46,42l2,0 0,2 -2,0 0,-2z M58,42l2,0 0,2 -2,0 0,-2z M60,42l2,0 0,2 -2,0 0,-2z M62,42l2,0 0,2 -2,0 0,-2z M64,42l2,0 0,2 -2,0 0,-2z M66,42l2,0 0,2 -2,0 0,-2z M72,42l2,0 0,2 -2,0 0,-2z M10,44l2,0 0,2 -2,0 0,-2z M14,44l2,0 0,2 -2,0 0,-2z M16,44l2,0 0,2 -2,0 0,-2z M18,44l2,0 0,2 -2,0 0,-2z M20,44l2,0 0,2 -2,0 0,-2z M26,44l2,0 0,2 -2,0 0,-2z M28,44l2,0 0,2 -2,0 0,-2z M40,44l2,0 0,2 -2,0 0,-2z M42,44l2,0 0,2 -2,0 0,-2z M46,44l2,0 0,2 -2,0 0,-2z M50,44l2,0 0,2 -2,0 0,-2z M52,44l2,0 0,2 -2,0 0,-2z M62,44l2,0 0,2 -2,0 0,-2z M66,44l2,0 0,2 -2,0 0,-2z M68,44l2,0 0,2 -2,0 0,-2z M12,46l2,0 0,2 -2,0 0,-2z M14,46l2,0 0,2 -2,0 0,-2z M16,46l2,0 0,2 -2,0 0,-2z M24,46l2,0 0,2 -2,0 0,-2z M26,46l2,0 0,2 -2,0 0,-2z M28,46l2,0 0,2 -2,0 0,-2z M32,46l2,0 0,2 -2,0 0,-2z M36,46l2,0 0,2 -2,0 0,-2z M42,46l2,0 0,2 -2,0 0,-2z M44,46l2,0 0,2 -2,0 0,-2z M46,46l2,0 0,2 -2,0 0,-2z M48,46l2,0 0,2 -2,0 0,-2z M50,46l2,0 0,2 -2,0 0,-2z M56,46l2,0 0,2 -2,0 0,-2z M58,46l2,0 0,2 -2,0 0,-2z M68,46l2,0 0,2 -2,0 0,-2z M70,46l2,0 0,2 -2,0 0,-2z M8,48l2,0 0,2 -2,0 0,-2z M10,48l2,0 0,2 -2,0 0,-2z M12,48l2,0 0,2 -2,0 0,-2z M14,48l2,0 0,2 -2,0 0,-2z M16,48l2,0 0,2 -2,0 0,-2z M20,48l2,0 0,2 -2,0 0,-2z M24,48l2,0 0,2 -2,0 0,-2z M26,48l2,0 0,2 -2,0 0,-2z M28,48l2,0 0,2 -2,0 0,-2z M30,48l2,0 0,2 -2,0 0,-2z M34,48l2,0 0,2 -2,0 0,-2z M36,48l2,0 0,2 -2,0 0,-2z M38,48l2,0 0,2 -2,0 0,-2z M40,48l2,0 0,2 -2,0 0,-2z M44,48l2,0 0,2 -2,0 0,-2z M54,48l2,0 0,2 -2,0 0,-2z M58,48l2,0 0,2 -2,0 0,-2z M60,48l2,0 0,2 -2,0 0,-2z M62,48l2,0 0,2 -2,0 0,-2z M68,48l2,0 0,2 -2,0 0,-2z M70,48l2,0 0,2 -2,0 0,-2z M72,48l2,0 0,2 -2,0 0,-2z M8,50l2,0 0,2 -2,0 0,-2z M12,50l2,0 0,2 -2,0 0,-2z M14,50l2,0 0,2 -2,0 0,-2z M16,50l2,0 0,2 -2,0 0,-2z M18,50l2,0 0,2 -2,0 0,-2z M22,50l2,0 0,2 -2,0 0,-2z M24,50l2,0 0,2 -2,0 0,-2z M32,50l2,0 0,2 -2,0 0,-2z M42,50l2,0 0,2 -2,0 0,-2z M46,50l2,0 0,2 -2,0 0,-2z M48,50l2,0 0,2 -2,0 0,-2z M50,50l2,0 0,2 -2,0 0,-2z M52,50l2,0 0,2 -2,0 0,-2z M56,50l2,0 0,2 -2,0 0,-2z M60,50l2,0 0,2 -2,0 0,-2z M68,50l2,0 0,2 -2,0 0,-2z M70,50l2,0 0,2 -2,0 0,-2z M72,50l2,0 0,2 -2,0 0,-2z M12,52l2,0 0,2 -2,0 0,-2z M20,52l2,0 0,2 -2,0 0,-2z M22,52l2,0 0,2 -2,0 0,-2z M24,52l2,0 0,2 -2,0 0,-2z M28,52l2,0 0,2 -2,0 0,-2z M30,52l2,0 0,2 -2,0 0,-2z M32,52l2,0 0,2 -2,0 0,-2z M34,52l2,0 0,2 -2,0 0,-2z M36,52l2,0 0,2 -2,0 0,-2z M38,52l2,0 0,2 -2,0 0,-2z M44,52l2,0 0,2 -2,0 0,-2z M48,52l2,0 0,2 -2,0 0,-2z M54,52l2,0 0,2 -2,0 0,-2z M56,52l2,0 0,2 -2,0 0,-2z M58,52l2,0 0,2 -2,0 0,-2z M60,52l2,0 0,2 -2,0 0,-2z M64,52l2,0 0,2 -2,0 0,-2z M70,52l2,0 0,2 -2,0 0,-2z M72,52l2,0 0,2 -2,0 0,-2z M14,54l2,0 0,2 -2,0 0,-2z M16,54l2,0 0,2 -2,0 0,-2z M18,54l2,0 0,2 -2,0 0,-2z M22,54l2,0 0,2 -2,0 0,-2z M24,54l2,0 0,2 -2,0 0,-2z M30,54l2,0 0,2 -2,0 0,-2z M34,54l2,0 0,2 -2,0 0,-2z M38,54l2,0 0,2 -2,0 0,-2z M40,54l2,0 0,2 -2,0 0,-2z M52,54l2,0 0,2 -2,0 0,-2z M54,54l2,0 0,2 -2,0 0,-2z M60,54l2,0 0,2 -2,0 0,-2z M62,54l2,0 0,2 -2,0 0,-2z M64,54l2,0 0,2 -2,0 0,-2z M66,54l2,0 0,2 -2,0 0,-2z M72,54l2,0 0,2 -2,0 0,-2z M8,56l2,0 0,2 -2,0 0,-2z M10,56l2,0 0,2 -2,0 0,-2z M16,56l2,0 0,2 -2,0 0,-2z M20,56l2,0 0,2 -2,0 0,-2z M22,56l2,0 0,2 -2,0 0,-2z M26,56l2,0 0,2 -2,0 0,-2z M28,56l2,0 0,2 -2,0 0,-2z M32,56l2,0 0,2 -2,0 0,-2z M34,56l2,0 0,2 -2,0 0,-2z M46,56l2,0 0,2 -2,0 0,-2z M48,56l2,0 0,2 -2,0 0,-2z M52,56l2,0 0,2 -2,0 0,-2z M56,56l2,0 0,2 -2,0 0,-2z M58,56l2,0 0,2 -2,0 0,-2z M60,56l2,0 0,2 -2,0 0,-2z M62,56l2,0 0,2 -2,0 0,-2z M64,56l2,0 0,2 -2,0 0,-2z M66,56l2,0 0,2 -2,0 0,-2z M68,56l2,0 0,2 -2,0 0,-2z M24,58l2,0 0,2 -2,0 0,-2z M28,58l2,0 0,2 -2,0 0,-2z M34,58l2,0 0,2 -2,0 0,-2z M36,58l2,0 0,2 -2,0 0,-2z M40,58l2,0 0,2 -2,0 0,-2z M44,58l2,0 0,2 -2,0 0,-2z M46,58l2,0 0,2 -2,0 0,-2z M56,58l2,0 0,2 -2,0 0,-2z M64,58l2,0 0,2 -2,0 0,-2z M66,58l2,0 0,2 -2,0 0,-2z M70,58l2,0 0,2 -2,0 0,-2z M72,58l2,0 0,2 -2,0 0,-2z M8,60l2,0 0,2 -2,0 0,-2z M10,60l2,0 0,2 -2,0 0,-2z M12,60l2,0 0,2 -2,0 0,-2z M14,60l2,0 0,2 -2,0 0,-2z M16,60l2,0 0,2 -2,0 0,-2z M18,60l2,0 0,2 -2,0 0,-2z M20,60l2,0 0,2 -2,0 0,-2z M26,60l2,0 0,2 -2,0 0,-2z M40,60l2,0 0,2 -2,0 0,-2z M42,60l2,0 0,2 -2,0 0,-2z M46,60l2,0 0,2 -2,0 0,-2z M50,60l2,0 0,2 -2,0 0,-2z M52,60l2,0 0,2 -2,0 0,-2z M54,60l2,0 0,2 -2,0 0,-2z M56,60l2,0 0,2 -2,0 0,-2z M60,60l2,0 0,2 -2,0 0,-2z M64,60l2,0 0,2 -2,0 0,-2z M66,60l2,0 0,2 -2,0 0,-2z M68,60l2,0 0,2 -2,0 0,-2z M8,62l2,0 0,2 -2,0 0,-2z M20,62l2,0 0,2 -2,0 0,-2z M24,62l2,0 0,2 -2,0 0,-2z M28,62l2,0 0,2 -2,0 0,-2z M32,62l2,0 0,2 -2,0 0,-2z M36,62l2,0 0,2 -2,0 0,-2z M42,62l2,0 0,2 -2,0 0,-2z M44,62l2,0 0,2 -2,0 0,-2z M46,62l2,0 0,2 -2,0 0,-2z M48,62l2,0 0,2 -2,0 0,-2z M50,62l2,0 0,2 -2,0 0,-2z M56,62l2,0 0,2 -2,0 0,-2z M64,62l2,0 0,2 -2,0 0,-2z M68,62l2,0 0,2 -2,0 0,-2z M8,64l2,0 0,2 -2,0 0,-2z M12,64l2,0 0,2 -2,0 0,-2z M14,64l2,0 0,2 -2,0 0,-2z M16,64l2,0 0,2 -2,0 0,-2z M20,64l2,0 0,2 -2,0 0,-2z M24,64l2,0 0,2 -2,0 0,-2z M30,64l2,0 0,2 -2,0 0,-2z M34,64l2,0 0,2 -2,0 0,-2z M36,64l2,0 0,2 -2,0 0,-2z M38,64l2,0 0,2 -2,0 0,-2z M40,64l2,0 0,2 -2,0 0,-2z M44,64l2,0 0,2 -2,0 0,-2z M54,64l2,0 0,2 -2,0 0,-2z M56,64l2,0 0,2 -2,0 0,-2z M58,64l2,0 0,2 -2,0 0,-2z M60,64l2,0 0,2 -2,0 0,-2z M62,64l2,0 0,2 -2,0 0,-2z M64,64l2,0 0,2 -2,0 0,-2z M68,64l2,0 0,2 -2,0 0,-2z M70,64l2,0 0,2 -2,0 0,-2z M72,64l2,0 0,2 -2,0 0,-2z M8,66l2,0 0,2 -2,0 0,-2z M12,66l2,0 0,2 -2,0 0,-2z M14,66l2,0 0,2 -2,0 0,-2z M16,66l2,0 0,2 -2,0 0,-2z M20,66l2,0 0,2 -2,0 0,-2z M32,66l2,0 0,2 -2,0 0,-2z M42,66l2,0 0,2 -2,0 0,-2z M46,66l2,0 0,2 -2,0 0,-2z M48,66l2,0 0,2 -2,0 0,-2z M50,66l2,0 0,2 -2,0 0,-2z M52,66l2,0 0,2 -2,0 0,-2z M68,66l2,0 0,2 -2,0 0,-2z M70,66l2,0 0,2 -2,0 0,-2z M72,66l2,0 0,2 -2,0 0,-2z M8,68l2,0 0,2 -2,0 0,-2z M12,68l2,0 0,2 -2,0 0,-2z M14,68l2,0 0,2 -2,0 0,-2z M16,68l2,0 0,2 -2,0 0,-2z M20,68l2,0 0,2 -2,0 0,-2z M26,68l2,0 0,2 -2,0 0,-2z M28,68l2,0 0,2 -2,0 0,-2z M30,68l2,0 0,2 -2,0 0,-2z M32,68l2,0 0,2 -2,0 0,-2z M34,68l2,0 0,2 -2,0 0,-2z M36,68l2,0 0,2 -2,0 0,-2z M38,68l2,0 0,2 -2,0 0,-2z M44,68l2,0 0,2 -2,0 0,-2z M48,68l2,0 0,2 -2,0 0,-2z M56,68l2,0 0,2 -2,0 0,-2z M8,70l2,0 0,2 -2,0 0,-2z M20,70l2,0 0,2 -2,0 0,-2z M24,70l2,0 0,2 -2,0 0,-2z M26,70l2,0 0,2 -2,0 0,-2z M30,70l2,0 0,2 -2,0 0,-2z M34,70l2,0 0,2 -2,0 0,-2z M38,70l2,0 0,2 -2,0 0,-2z M40,70l2,0 0,2 -2,0 0,-2z M52,70l2,0 0,2 -2,0 0,-2z M62,70l2,0 0,2 -2,0 0,-2z M66,70l2,0 0,2 -2,0 0,-2z M8,72l2,0 0,2 -2,0 0,-2z M10,72l2,0 0,2 -2,0 0,-2z M12,72l2,0 0,2 -2,0 0,-2z M14,72l2,0 0,2 -2,0 0,-2z M16,72l2,0 0,2 -2,0 0,-2z M18,72l2,0 0,2 -2,0 0,-2z M20,72l2,0 0,2 -2,0 0,-2z M24,72l2,0 0,2 -2,0 0,-2z M28,72l2,0 0,2 -2,0 0,-2z M32,72l2,0 0,2 -2,0 0,-2z M34,72l2,0 0,2 -2,0 0,-2z M46,72l2,0 0,2 -2,0 0,-2z M48,72l2,0 0,2 -2,0 0,-2z M52,72l2,0 0,2 -2,0 0,-2z M56,72l2,0 0,2 -2,0 0,-2z M60,72l2,0 0,2 -2,0 0,-2z M62,72l2,0 0,2 -2,0 0,-2z M64,72l2,0 0,2 -2,0 0,-2z M66,72l2,0 0,2 -2,0 0,-2z M68,72l2,0 0,2 -2,0 0,-2z M72,72l2,0 0,2 -2,0 0,-2z " stroke="transparent" fill="black"/></svg>